PathFileType	4	(X/Y/Z)	P:\Projects\LMB_grand_challenge_database\project_only\opensim\experimental_data\SixthCompetition/DM_ngait_og7_new.trc
DataRate	CameraRate	NumFrames	NumMarkers	Units	OrigDataRate	OrigDataStartFrame	OrigNumFrames
120	120	5	68	mm	120	117	314
Frame#	Time	Sternum			Neck			R_Shoulder			L_Shoulder			Xiphoid			Thoracic			R_Asis			L_Asis			R_Psis			L_Psis			Lumbar			R_Elbow			R_ElbowMedial			R_ShoulderAnterior			R_ShoulderPosterior			R_Wrist			R_Radius			R_Ulna			L_Elbow			L_ElbowMedial			L_ShoulderAnterior			L_ShoulderPosterior			L_Wrist			L_Ulna			L_Radius			L_Thigh_Superior			L_Thigh_Inferior			L_Thigh_Lateral			L_Knee_Lateral			L_Knee_Medial			L_Patella			L_Shank_Superior			L_Shank_Inferior			L_Shank_Lateral			L_Ankle_Lateral			L_Ankle_Medial			R_Thigh_Superior			R_Thigh_Inferior			R_Thigh_Lateral			R_Knee_Lateral			R_Knee_Medial			R_Patella			R_Shank_Superior			R_Shank_Inferior			R_Shank_Lateral			R_Ankle_Lateral			RankleMedial			R_Heel			R_Toe			R_Midfoot_Medial			R_Midfoot_Lateral			R_Hindfoot			R_Midfoot_Superior			R_ToeMedial			R_ToeLateral			L_Heel			L_Toe			L_Midfoot_Medial			L_Midfoot_Lateral			L_Hindfoot			L_Midfoot_Superior			L_ToeMedial			L_ToeLateral			Oglobal			Sacral			Xglobal			Yglobal			Zglobal			
		X1	Y1	Z1	X2	Y2	Z2	X3	Y3	Z3	X4	Y4	Z4	X5	Y5	Z5	X6	Y6	Z6	X7	Y7	Z7	X8	Y8	Z8	X9	Y9	Z9	X10	Y10	Z10	X11	Y11	Z11	X12	Y12	Z12	X13	Y13	Z13	X14	Y14	Z14	X15	Y15	Z15	X16	Y16	Z16	X17	Y17	Z17	X18	Y18	Z18	X19	Y19	Z19	X20	Y20	Z20	X21	Y21	Z21	X22	Y22	Z22	X23	Y23	Z23	X24	Y24	Z24	X25	Y25	Z25	X26	Y26	Z26	X27	Y27	Z27	X28	Y28	Z28	X29	Y29	Z29	X30	Y30	Z30	X31	Y31	Z31	X32	Y32	Z32	X33	Y33	Z33	X34	Y34	Z34	X35	Y35	Z35	X36	Y36	Z36	X37	Y37	Z37	X38	Y38	Z38	X39	Y39	Z39	X40	Y40	Z40	X41	Y41	Z41	X42	Y42	Z42	X43	Y43	Z43	X44	Y44	Z44	X45	Y45	Z45	X46	Y46	Z46	X47	Y47	Z47	X48	Y48	Z48	X49	Y49	Z49	X50	Y50	Z50	X51	Y51	Z51	X52	Y52	Z52	X53	Y53	Z53	X54	Y54	Z54	X55	Y55	Z55	X56	Y56	Z56	X57	Y57	Z57	X58	Y58	Z58	X59	Y59	Z59	X60	Y60	Z60	X61	Y61	Z61	X62	Y62	Z62	X63	Y63	Z63	X64	Y64	Z64	X65	Y65	Z65	X66	Y66	Z66	X67	Y67	Z67	X68	Y68	Z68	

118	1.733333	-33.6307	1437.7	202.617	126.598	1362.66	174.397	87.7713	1378.87	354.977	10.101	1404.02	12.8144	147.781	1193.02	176.755	-120.457	1251.88	192.007	63.3317	971.198	322.096	69.3937	954.3049999999999	43.0371	-135.544	1006.8	207.54	-133.255	1004.17	129.001	-132.695	1055.34	166.765	129.004	1070.49	459.457	-0	0	0	-0	0	0	-0	0	0	301.421	861.952	393.831	286.946	871.3099999999999	352.673	261.688	844.753	414.641	-125.905	1097.24	-75.3596	-0	0	0	-0	0	0	-0	0	0	-172.116	835.474	-112.243	-209.86	864.581	-112.417	-154.547	843.819	-67.9422	29.058	789.772	4.33262	134.482	594.675	57.0369	140.312	692.788	82.8699	-0	0	0	-0	0	0	199.05	535.801	123.894	150.42	446.427	53.9442	238.667	188.398	59.6525	237.57	327.255	122.827	-0	0	0	-0	0	0	-59.4359	795.811	347.815	-113.128	584.304	302.191	-10.2212	622.965	263.062	-0	0	0	-0	0	0	-63.1315	475.827	232.52	-209.782	402.236	302.487	-273.053	202.649	280.703	-168.783	305.348	219.865	-0	0	0	-0	0	0	-386.833	77.7381	215.777	-90.6452	49.0011	239.267	-164.928	29.4972	180.456	-185.589	22.7841	295.698	-294.945	31.3157	274.776	-219.245	119.773	235.038	-121.051	37.5999	193.456	-135.772	38.1177	284.099	228.804	51.6472	124.96	499.904	163.842	78.3524	444.195	118.505	142.407	420.937	100.931	31.6989	327.136	53.2589	55.5602	354.01	169.254	92.4932	479.704	134.568	126.805	468.301	128.021	32.1827	-0	0	0	-134.399	1005.49	168.271	-200	0	0	-0	0	200	-0	200	0	
119	1.741667	-24.0498	1436.1	201.009	136.121	1360.91	172.939	97.184	1377.54	353.284	19.2696	1402.16	11.2992	157.144	1191.33	175.715	-110.816	1250.06	190.878	72.518	969.39	322.045	79.0656	952.312	42.4242	-126.063	1005.13	207.024	-123.551	1002.33	128.386	-123.16	1053.6	166.039	137.918	1069.29	458.357	-0	0	0	-0	0	0	-0	0	0	310.557	860.811	393.216	296.242	870.088	351.95	270.845	843.619	414.073	-117.555	1095.97	-76.9057	-0	0	0	-0	0	0	-0	0	0	-164.785	833.794	-112.606	-202.159	863.5069999999999	-114.076	-148.069	842.658	-68.19799999999999	39.8378	789.724	1.40804	148.716	595.595	57.4488	151.79	695.226	83.9558	-0	0	0	-0	0	0	213.108	536.381	123.857	164.207	445.871	55.75	245.821	185.885	61.7228	247.363	324.236	125.18	-0	0	0	-0	0	0	-50.9799	794.466	347.874	-106.252	583.39	301.868	-2.61157	621.3099999999999	263.071	-0	0	0	-0	0	0	-57.5075	474.063	233.078	-204.934	402.589	302.483	-270.944	203.951	280.864	-165.125	304.803	219.893	-0	0	0	-0	0	0	-385.983	79.84059999999999	216.128	-90.4225	48.6828	239.358	-164.601	29.3617	180.661	-185.345	22.4746	295.877	-294.674	32.1039	275.05	-217.903	120.037	235.554	-120.897	37.3497	193.446	-135.685	37.7911	284.179	230.821	51.784	126.184	506.449	153.787	82.50579999999999	448.577	109.911	145.453	424.924	95.7286	34.3424	329.04	50.8399	56.9923	360.01	164.743	96.6743	484.814	124.337	130.302	473.148	120.549	35.6204	-0	0	0	-124.807	1003.73	167.705	-200	0	0	-0	0	200	-0	200	0	
120	1.75	-14.65	1434.51	199.435	145.42	1359.22	171.166	106.667	1376.15	351.44	28.6824	1400.28	9.67953	166.284	1189.7	174.226	-101.443	1248.32	189.585	81.8142	967.491	321.994	89.113	950.6	41.8223	-116.345	1003.57	206.346	-113.578	1000.58	127.648	-113.374	1051.96	165.254	146.804	1068.11	457.052	-0	0	0	-0	0	0	-0	0	0	319.47	859.586	392.808	305.093	868.598	351.309	279.765	842.466	413.52	-108.856	1094.51	-78.4697	-0	0	0	-0	0	0	-0	0	0	-156.883	832.129	-113.152	-193.895	862.266	-115.749	-140.955	841.331	-68.3997	51.0868	789.3	-1.08855	163.348	596.116	57.582	163.386	696.149	84.6203	-0	0	0	-0	0	0	227.172	536.428	123.943	177.933	445.224	57.4782	251.726	182.924	64.1032	256.739	321.226	127.88	-0	0	0	-0	0	0	-42.1058	792.998	347.728	-99.1781	582.724	301.541	4.87803	619.74	263.116	-0	0	0	-0	0	0	-51.3128	471.846	233.157	-199.803	402.914	302.358	-268.288	205.044	281.051	-161.191	304.344	220.131	-0	0	0	-0	0	0	-385.012	82.3058	216.428	-90.1979	48.2086	239.384	-164.249	29.3193	180.755	-185.076	22.2275	295.944	-294.412	33.4016	275.017	-216.356	120.434	236.019	-120.637	37.1501	193.465	-135.543	37.6084	284.167	233.176	51.7992	127.5	512.328	142.976	86.5954	453.232	100.078	147.796	428.98	89.33069999999999	36.4297	331.006	48.073	58.3427	366.347	159.102	100.457	489.446	113.452	133.852	478.218	111.921	39.2391	-0	0	0	-114.961	1002.07	166.997	-200	0	0	-0	0	200	-0	200	0	
121	1.758333	-5.27988	1432.87	197.663	154.862	1357.74	169.593	115.925	1375.02	349.479	37.8902	1398.62	8.006460000000001	176.058	1188.28	173.028	-91.7358	1246.63	188.247	91.31829999999999	965.735	321.83	99.2212	949.076	41.2037	-106.488	1002.08	205.655	-103.54	998.856	127.006	-103.516	1050.37	164.527	155.606	1067.2	455.707	-0	0	0	-0	0	0	-0	0	0	328.088	858.157	392.169	313.921	867.4059999999999	350.911	288.081	841.2190000000001	412.896	-100.012	1092.82	-79.9911	-0	0	0	-0	0	0	-0	0	0	-148.27	830.1	-113.452	-185.108	860.833	-117.433	-133.077	840.054	-68.92570000000001	63.3988	788.444	-2.14645	177.843	596.471	57.7132	176.447	697.63	84.1917	-0	0	0	-0	0	0	240.827	535.891	124.376	191.478	444.578	59.5045	257.285	180.18	66.4636	265.395	317.811	130.749	-0	0	0	-0	0	0	-33.3937	791.736	347.762	-91.30589999999999	581.4450000000001	301.5	12.6796	617.999	263.096	-0	0	0	-0	0	0	-44.6358	469.977	233.423	-194.135	403.405	302.149	-265.598	206.479	281.143	-156.952	303.981	220.517	-0	0	0	-0	0	0	-384.134	85.0868	216.799	-89.8956	47.856	239.485	-164.131	29.5393	180.34	-184.904	21.6652	295.487	-293.833	34.5602	274.819	-214.626	120.891	236.546	-120.271	36.8366	193.572	-135.413	37.3852	284.352	235.634	52.3538	128.149	518.473	131.972	90.7431	456.787	92.411	153.736	434.935	81.9148	41.8502	335.16	44.4744	61.34	372.697	153.858	104.048	494.046	102.754	137.42	483.329	102.891	42.5765	-0	0	0	-105.014	1000.47	166.331	-200	0	0	-0	0	200	-0	200	0	
122	1.766667	4.16696	1431.45	195.766	164.344	1356.33	167.705	125.319	1373.91	347.593	46.7918	1396.83	6.36154	185.661	1186.92	171.459	-81.9952	1244.91	186.883	101.089	964.04	321.613	109.661	947.4450000000001	40.6563	-96.3587	1000.59	204.888	-93.196	997.13	126.304	-93.3399	1048.77	163.703	164.216	1066.41	454.295	-0	0	0	-0	0	0	-0	0	0	336.269	856.6900000000001	391.99	322.337	865.854	350.441	296.311	839.852	412.493	-91.0069	1091.17	-81.5372	-0	0	0	-0	0	0	-0	0	0	-139.096	828.052	-114.064	-175.817	859.022	-118.903	-124.834	838.623	-69.1904	76.7021	787.327	-1.56754	191.338	596.342	58.7169	191.692	700.3150000000001	83.9619	-0	0	0	-0	0	0	253.85	534.891	125.252	204.476	443.633	61.0507	263.869	178.348	68.0801	273.867	315.022	132.805	-0	0	0	-0	0	0	-24.2136	790.37	347.698	-83.8618	580.833	300.895	21.0756	616.432	263.187	-0	0	0	-0	0	0	-37.191	468.03	233.538	-188.43	404.05	301.91	-262.784	208.146	281.325	-152.156	303.753	220.796	-0	0	0	-0	0	0	-382.856	88.26090000000001	217.241	-89.43640000000001	47.389	239.533	-163.743	29.5217	180.427	-184.481	21.8164	295.593	-293.607	36.1086	275.148	-212.766	121.549	236.813	-119.913	36.5833	193.571	-135.183	37.1174	284.49	238.2	53.4341	128.045	524.354	121.675	95.0515	460.691	83.9208	155.169	438.929	76.29640000000001	43.0333	336.936	41.6607	61.2444	378.902	149.283	106.341	497.842	93.48690000000001	141.337	488.788	94.0093	46.5376	-0	0	0	-94.7774	998.861	165.596	-200	0	0	-0	0	200	-0	200	0	
